<svg width="920" height="836" viewBox="0 0 920 836" fill="none" xmlns="http://www.w3.org/2000/svg">
<path d="M302.997 560.891L298.303 565.578L295.339 562.613L300.024 557.917L295.339 553.23L298.303 550.256L302.997 554.952L307.691 550.256L310.655 553.23L305.969 557.917L310.655 562.613L307.691 565.578L302.997 560.891Z" fill="#0D0A47" stroke="white"/>
<path d="M147.658 553.634L142.964 558.322L140 555.356L144.685 550.661L140 545.974L142.964 543L147.658 547.696L152.352 543L155.316 545.974L150.631 550.661L155.316 555.356L152.352 558.322L147.658 553.634Z" fill="#0D0A47" stroke="white"/>
<path d="M442.658 614.634L437.964 619.322L435 616.356L439.685 611.661L435 606.974L437.964 604L442.658 608.696L447.352 604L450.316 606.974L445.631 611.661L450.316 616.356L447.352 619.322L442.658 614.634Z" fill="#0D0A47" stroke="white"/>
<path d="M533.658 657.634L528.964 662.322L526 659.356L530.685 654.661L526 649.974L528.964 647L533.658 651.696L538.352 647L541.316 649.974L536.631 654.661L541.316 659.356L538.352 662.322L533.658 657.634Z" fill="#0D0A47" stroke="white"/>
<path d="M564.658 637.634L559.964 642.322L557 639.356L561.685 634.661L557 629.974L559.964 627L564.658 631.696L569.352 627L572.316 629.974L567.631 634.661L572.316 639.356L569.352 642.322L564.658 637.634Z" fill="#0D0A47" stroke="white"/>
<path d="M507.137 278.28C511.079 278.28 514.275 275.083 514.275 271.14C514.275 267.197 511.079 264 507.137 264C503.196 264 500 267.197 500 271.14C500 275.083 503.196 278.28 507.137 278.28Z" fill="#FF493B" stroke="white"/>
<path d="M598.137 166.28C602.079 166.28 605.275 163.083 605.275 159.14C605.275 155.197 602.079 152 598.137 152C594.196 152 591 155.197 591 159.14C591 163.083 594.196 166.28 598.137 166.28Z" fill="#FF493B" stroke="white"/>
<path d="M578.137 220.28C582.079 220.28 585.275 217.083 585.275 213.14C585.275 209.197 582.079 206 578.137 206C574.196 206 571 209.197 571 213.14C571 217.083 574.196 220.28 578.137 220.28Z" fill="#0D0A47" stroke="white"/>
<rect width="184" height="23" transform="translate(611 159)" fill="#FF493B"/>
<path d="M622.84 177V164.02H631.18V166.06H625.2V169.48H630.82V171.52H625.2V174.94H631.18V177H622.84ZM641.258 177V171.32C641.258 170.6 641.085 170.057 640.738 169.69C640.392 169.323 639.938 169.14 639.378 169.14C638.905 169.14 638.485 169.27 638.118 169.53C637.758 169.79 637.475 170.183 637.268 170.71C637.062 171.23 636.958 171.88 636.958 172.66H636.178C636.178 171.4 636.335 170.353 636.648 169.52C636.962 168.68 637.405 168.053 637.978 167.64C638.552 167.227 639.225 167.02 639.998 167.02C640.798 167.02 641.465 167.2 641.998 167.56C642.538 167.913 642.942 168.413 643.208 169.06C643.482 169.707 643.618 170.46 643.618 171.32V177H641.258ZM634.598 177V167.3H636.658L636.958 169.22V177H634.598ZM650.339 177.28C649.766 177.28 649.239 177.173 648.759 176.96C648.286 176.747 647.906 176.42 647.619 175.98C647.339 175.54 647.199 174.98 647.199 174.3V164.72H649.559V174.22C649.559 175.02 649.939 175.42 650.699 175.42C650.933 175.42 651.166 175.393 651.399 175.34C651.633 175.287 651.899 175.207 652.199 175.1L652.539 176.76C652.166 176.907 651.803 177.03 651.449 177.13C651.096 177.23 650.726 177.28 650.339 177.28ZM645.839 168.86V167.3H652.199V168.86H645.839ZM654.95 177V167.26H657.31V177H654.95ZM656.73 172.74C656.73 171.467 656.873 170.413 657.16 169.58C657.447 168.747 657.83 168.13 658.31 167.73C658.797 167.323 659.337 167.12 659.93 167.12C660.09 167.12 660.24 167.13 660.38 167.15C660.527 167.17 660.67 167.2 660.81 167.24L660.77 169.6C660.597 169.56 660.41 169.527 660.21 169.5C660.01 169.473 659.83 169.46 659.67 169.46C659.15 169.46 658.713 169.587 658.36 169.84C658.013 170.087 657.75 170.453 657.57 170.94C657.397 171.427 657.31 172.027 657.31 172.74H656.73ZM666.421 177.28C665.595 177.28 664.838 177.067 664.151 176.64C663.465 176.213 662.915 175.617 662.501 174.85C662.088 174.077 661.881 173.173 661.881 172.14C661.881 171.073 662.085 170.157 662.491 169.39C662.905 168.623 663.455 168.037 664.141 167.63C664.828 167.223 665.588 167.02 666.421 167.02C667.195 167.02 667.861 167.177 668.421 167.49C668.988 167.797 669.441 168.217 669.781 168.75C670.128 169.277 670.361 169.873 670.481 170.54C670.601 171.207 670.608 171.893 670.501 172.6H663.761V171.32H668.831L668.371 171.62C668.391 171.307 668.375 170.99 668.321 170.67C668.275 170.35 668.181 170.057 668.041 169.79C667.901 169.523 667.701 169.31 667.441 169.15C667.188 168.983 666.861 168.9 666.461 168.9C665.981 168.9 665.575 169.02 665.241 169.26C664.908 169.5 664.655 169.827 664.481 170.24C664.308 170.653 664.221 171.12 664.221 171.64V172.58C664.221 173.127 664.301 173.61 664.461 174.03C664.628 174.45 664.871 174.78 665.191 175.02C665.518 175.26 665.928 175.38 666.421 175.38C666.881 175.38 667.268 175.273 667.581 175.06C667.895 174.847 668.095 174.527 668.181 174.1H670.561C670.461 174.727 670.225 175.28 669.851 175.76C669.485 176.233 669.008 176.607 668.421 176.88C667.835 177.147 667.168 177.28 666.421 177.28ZM678.267 177.28C677.554 177.28 676.947 177.127 676.447 176.82C675.947 176.513 675.564 176.05 675.297 175.43C675.037 174.803 674.907 174.02 674.907 173.08H675.767C675.767 173.513 675.867 173.883 676.067 174.19C676.267 174.497 676.53 174.733 676.857 174.9C677.19 175.06 677.547 175.14 677.927 175.14C678.32 175.14 678.707 175.033 679.087 174.82C679.474 174.6 679.794 174.27 680.047 173.83C680.3 173.383 680.427 172.82 680.427 172.14C680.427 171.52 680.32 170.987 680.107 170.54C679.894 170.087 679.6 169.74 679.227 169.5C678.86 169.26 678.44 169.14 677.967 169.14C677.567 169.14 677.2 169.23 676.867 169.41C676.534 169.59 676.267 169.853 676.067 170.2C675.867 170.54 675.767 170.953 675.767 171.44H674.907C674.907 170.42 675.064 169.587 675.377 168.94C675.69 168.287 676.11 167.803 676.637 167.49C677.164 167.177 677.74 167.02 678.367 167.02C679.134 167.02 679.854 167.223 680.527 167.63C681.207 168.037 681.757 168.623 682.177 169.39C682.597 170.15 682.807 171.067 682.807 172.14C682.807 173.22 682.594 174.143 682.167 174.91C681.74 175.677 681.18 176.263 680.487 176.67C679.8 177.077 679.06 177.28 678.267 177.28ZM673.407 181.74V167.3H675.347L675.767 169.7V181.74H673.407ZM689.434 177.28C688.547 177.28 687.744 177.09 687.024 176.71C686.311 176.33 685.744 175.763 685.324 175.01C684.904 174.25 684.694 173.3 684.694 172.16C684.694 171 684.904 170.04 685.324 169.28C685.744 168.52 686.311 167.953 687.024 167.58C687.744 167.207 688.547 167.02 689.434 167.02C690.307 167.02 691.097 167.207 691.804 167.58C692.517 167.953 693.084 168.52 693.504 169.28C693.924 170.04 694.134 171 694.134 172.16C694.134 173.3 693.924 174.25 693.504 175.01C693.084 175.763 692.517 176.33 691.804 176.71C691.097 177.09 690.307 177.28 689.434 177.28ZM689.354 175.22C689.821 175.22 690.234 175.107 690.594 174.88C690.961 174.647 691.247 174.303 691.454 173.85C691.667 173.397 691.774 172.833 691.774 172.16C691.774 171.133 691.571 170.36 691.164 169.84C690.764 169.32 690.214 169.06 689.514 169.06C689.041 169.06 688.621 169.177 688.254 169.41C687.887 169.637 687.597 169.98 687.384 170.44C687.177 170.9 687.074 171.473 687.074 172.16C687.074 173.173 687.277 173.937 687.684 174.45C688.097 174.963 688.654 175.22 689.354 175.22ZM700.222 177.28C699.649 177.28 699.122 177.173 698.642 176.96C698.169 176.747 697.789 176.42 697.502 175.98C697.222 175.54 697.082 174.98 697.082 174.3V164.72H699.442V174.22C699.442 175.02 699.822 175.42 700.582 175.42C700.815 175.42 701.049 175.393 701.282 175.34C701.515 175.287 701.782 175.207 702.082 175.1L702.422 176.76C702.049 176.907 701.685 177.03 701.332 177.13C700.979 177.23 700.609 177.28 700.222 177.28ZM695.722 168.86V167.3H702.082V168.86H695.722ZM713.571 177.28C712.758 177.28 712.001 177.07 711.301 176.65C710.608 176.223 710.045 175.627 709.611 174.86C709.185 174.087 708.971 173.18 708.971 172.14C708.971 171.04 709.185 170.11 709.611 169.35C710.045 168.583 710.608 168.003 711.301 167.61C712.001 167.217 712.758 167.02 713.571 167.02C714.205 167.02 714.761 167.123 715.241 167.33C715.728 167.53 716.141 167.803 716.481 168.15C716.821 168.49 717.088 168.87 717.281 169.29C717.475 169.71 717.598 170.133 717.651 170.56L715.271 170.62C715.165 170.193 714.965 169.84 714.671 169.56C714.385 169.28 714.011 169.14 713.551 169.14C713.171 169.14 712.815 169.247 712.481 169.46C712.148 169.667 711.875 169.99 711.661 170.43C711.455 170.87 711.351 171.44 711.351 172.14C711.351 172.807 711.448 173.363 711.641 173.81C711.841 174.25 712.108 174.583 712.441 174.81C712.775 175.03 713.145 175.14 713.551 175.14C714.151 175.14 714.588 174.997 714.861 174.71C715.135 174.417 715.271 174.027 715.271 173.54H717.651C717.651 174.227 717.495 174.853 717.181 175.42C716.868 175.987 716.408 176.44 715.801 176.78C715.195 177.113 714.451 177.28 713.571 177.28ZM724.297 177.28C723.411 177.28 722.607 177.09 721.887 176.71C721.174 176.33 720.607 175.763 720.187 175.01C719.767 174.25 719.557 173.3 719.557 172.16C719.557 171 719.767 170.04 720.187 169.28C720.607 168.52 721.174 167.953 721.887 167.58C722.607 167.207 723.411 167.02 724.297 167.02C725.171 167.02 725.961 167.207 726.667 167.58C727.381 167.953 727.947 168.52 728.367 169.28C728.787 170.04 728.997 171 728.997 172.16C728.997 173.3 728.787 174.25 728.367 175.01C727.947 175.763 727.381 176.33 726.667 176.71C725.961 177.09 725.171 177.28 724.297 177.28ZM724.217 175.22C724.684 175.22 725.097 175.107 725.457 174.88C725.824 174.647 726.111 174.303 726.317 173.85C726.531 173.397 726.637 172.833 726.637 172.16C726.637 171.133 726.434 170.36 726.027 169.84C725.627 169.32 725.077 169.06 724.377 169.06C723.904 169.06 723.484 169.177 723.117 169.41C722.751 169.637 722.461 169.98 722.247 170.44C722.041 170.9 721.937 171.473 721.937 172.16C721.937 173.173 722.141 173.937 722.547 174.45C722.961 174.963 723.517 175.22 724.217 175.22ZM731.805 177V163.28H734.165V177H731.805ZM741.719 177.28C740.832 177.28 740.029 177.09 739.309 176.71C738.596 176.33 738.029 175.763 737.609 175.01C737.189 174.25 736.979 173.3 736.979 172.16C736.979 171 737.189 170.04 737.609 169.28C738.029 168.52 738.596 167.953 739.309 167.58C740.029 167.207 740.832 167.02 741.719 167.02C742.592 167.02 743.382 167.207 744.089 167.58C744.802 167.953 745.369 168.52 745.789 169.28C746.209 170.04 746.419 171 746.419 172.16C746.419 173.3 746.209 174.25 745.789 175.01C745.369 175.763 744.802 176.33 744.089 176.71C743.382 177.09 742.592 177.28 741.719 177.28ZM741.639 175.22C742.106 175.22 742.519 175.107 742.879 174.88C743.246 174.647 743.532 174.303 743.739 173.85C743.952 173.397 744.059 172.833 744.059 172.16C744.059 171.133 743.856 170.36 743.449 169.84C743.049 169.32 742.499 169.06 741.799 169.06C741.326 169.06 740.906 169.177 740.539 169.41C740.172 169.637 739.882 169.98 739.669 170.44C739.462 170.9 739.359 171.473 739.359 172.16C739.359 173.173 739.562 173.937 739.969 174.45C740.382 174.963 740.939 175.22 741.639 175.22ZM755.887 177V171.32C755.887 170.6 755.714 170.057 755.367 169.69C755.021 169.323 754.567 169.14 754.007 169.14C753.534 169.14 753.114 169.27 752.747 169.53C752.387 169.79 752.104 170.183 751.897 170.71C751.691 171.23 751.587 171.88 751.587 172.66H750.807C750.807 171.4 750.964 170.353 751.277 169.52C751.591 168.68 752.034 168.053 752.607 167.64C753.181 167.227 753.854 167.02 754.627 167.02C755.427 167.02 756.094 167.2 756.627 167.56C757.167 167.913 757.571 168.413 757.837 169.06C758.111 169.707 758.247 170.46 758.247 171.32V177H755.887ZM749.227 177V167.3H751.287L751.587 169.22V177H749.227ZM763.068 165.52C762.608 165.52 762.248 165.4 761.988 165.16C761.735 164.913 761.608 164.573 761.608 164.14C761.608 163.72 761.735 163.387 761.988 163.14C762.248 162.887 762.608 162.76 763.068 162.76C763.521 162.76 763.878 162.887 764.138 163.14C764.398 163.387 764.528 163.72 764.528 164.14C764.528 164.573 764.398 164.913 764.138 165.16C763.878 165.4 763.521 165.52 763.068 165.52ZM761.888 177V167.26H764.248V177H761.888ZM774.431 177L774.131 174.64V170.74C774.131 170.06 773.991 169.557 773.711 169.23C773.437 168.903 772.971 168.74 772.311 168.74C771.931 168.74 771.601 168.797 771.321 168.91C771.041 169.023 770.824 169.187 770.671 169.4C770.524 169.607 770.451 169.86 770.451 170.16H767.871C767.871 169.427 768.047 168.83 768.401 168.37C768.754 167.903 769.261 167.563 769.921 167.35C770.587 167.13 771.384 167.02 772.311 167.02C773.151 167.02 773.884 167.157 774.511 167.43C775.137 167.697 775.624 168.11 775.971 168.67C776.317 169.23 776.491 169.947 776.491 170.82V177H774.431ZM771.251 177.28C770.417 177.28 769.721 177.137 769.161 176.85C768.607 176.557 768.191 176.173 767.911 175.7C767.631 175.227 767.491 174.713 767.491 174.16C767.491 173.547 767.651 173.033 767.971 172.62C768.297 172.2 768.757 171.887 769.351 171.68C769.944 171.467 770.644 171.36 771.451 171.36C771.977 171.36 772.474 171.4 772.941 171.48C773.414 171.56 773.884 171.667 774.351 171.8V173.18C773.984 173.06 773.584 172.967 773.151 172.9C772.717 172.833 772.311 172.8 771.931 172.8C771.371 172.8 770.911 172.903 770.551 173.11C770.191 173.317 770.011 173.667 770.011 174.16C770.011 174.52 770.157 174.83 770.451 175.09C770.744 175.35 771.211 175.48 771.851 175.48C772.337 175.48 772.751 175.373 773.091 175.16C773.431 174.947 773.687 174.68 773.861 174.36C774.041 174.04 774.131 173.72 774.131 173.4H774.691C774.691 174.1 774.561 174.747 774.301 175.34C774.041 175.927 773.654 176.397 773.141 176.75C772.634 177.103 772.004 177.28 771.251 177.28ZM779.95 177V163.28H782.31V177H779.95Z" fill="white"/>
</svg>
