<svg width="1335" height="938" viewBox="0 0 1335 938" fill="none" xmlns="http://www.w3.org/2000/svg">
<g style="mix-blend-mode:multiply" opacity="0.58">
<path fill-rule="evenodd" clip-rule="evenodd" d="M1335 0H0V938H1335V0ZM1223.46 379.3L1231.52 388.7L1227.44 395.52L1226.1 399.52L1230.1 404.89L1224.73 412.95V416.95L1228.73 422.32L1220.73 434.4V439.77C1220.73 439.77 1228.46 452.19 1227.44 453.19C1226.42 454.19 1222.07 457.19 1222.07 457.19V461.19L1223.41 467.91L1219.41 471.91V473.26L1222.09 478.63L1195.24 494.73L1191.24 498.73L1188.55 514.84L1159.02 525.58L1156.34 543.03L1132.17 553.77L1126.8 583.3L1101.3 594.04L1099.96 615.52L1077.13 620.89L1066.4 646.39L1061.03 647.74L1043.58 650.42L1034.18 661.16L1032.84 670.56C1032.84 670.56 1004.67 665.19 1003.3 665.19H992.56L991.22 674.58C991.22 674.58 942.87 665.81 941.55 665.19L913.36 651.76C913.36 651.76 887.68 645.59 887.86 602.09L886.52 594.09L877.12 595.43L855.64 592.75L842.22 594.09C842.22 594.09 843.02 631.8 822.08 635.7C801.14 639.6 781.81 642.42 781.81 642.42L730.81 655.84L642.21 677.32L607.31 685.37L545.56 698.8L546.9 680L555 670.6V645.13H560.33C560.33 645.13 562.16 630.72 563.01 630.36C563.86 630 571.07 625 571.07 625V619.53L572.41 612.81L565.7 595.36V584.62L571.07 560.46L565.7 549.72V547.04H567.06V541.67L564.37 534.96L569.74 525.56V521.56L568.4 517.56L559 505.48V502.8L565.7 493.4V451.79L618.05 426.28L620.73 423.6V408.83L630.13 400.78L624.76 344.4L644.9 331L647.58 327L646.28 301.52L679.84 247.83L682.52 242.46V234.4L679.84 225.01V222.32L690.58 220.98L695.95 222.32L698.63 226.32H702.63L737.53 198.13L736.19 177.99L753.64 157.86H756.33L765.72 161.86H769.72L816.72 145.75L824.78 149.75H835.5L854.29 141.7L861 144.38L867.73 145.69L878.47 141.69L885.18 139L886.55 132.3L906.41 123.69L918.74 118.88L918.45 118.47L926.8 114.85L959 92L991.23 86.66L996.6 97.4L1011.28 96.09L1022.02 108.17L1043.5 104.17L1059.6 116.25L1094.51 112.25L1124.04 157.9L1144.17 161.9C1144.17 161.9 1157.92 181.07 1158.94 182.04C1159.96 183.01 1191.16 191.44 1191.16 191.44L1192.5 199.44L1199.21 202.12L1197.87 207.49L1204.58 214.21L1200.58 235.68L1189.85 233L1185.85 237V257.1L1227.46 277.24L1224.78 283.95L1231.49 289.32L1227.49 297.37L1232.86 302.74L1207.36 345.74L1228.83 369.9L1223.46 379.3Z" fill="#6565FB"/>
</g>
<path opacity="0.6" d="M843.75 694.255L840.05 691.905L839.514 692.749L838.05 691.82L836.512 692.284L836.223 691.327L832.271 692.52L832.56 693.477L828.607 694.671L828.318 693.713L824.365 694.907L824.654 695.864L820.701 697.057L820.412 696.1L816.46 697.293L816.749 698.251L812.796 699.444L812.507 698.487L808.554 699.68L808.843 700.637L804.89 701.831L804.601 700.873L800.648 702.067L800.937 703.024L796.985 704.217L796.696 703.26L792.743 704.453L793.032 705.411L789.079 706.604L788.79 705.647L784.837 706.84L785.126 707.797L781.174 708.991L780.885 708.033L776.932 709.227L777.221 710.184L773.268 711.377L772.979 710.42L769.026 711.613L769.315 712.571L768.226 712.899L768.451 713.918L767.475 714.134L768.325 717.983L769.302 717.767L770.152 721.615L769.176 721.831L770.026 725.679L771.002 725.463L771.853 729.312L770.876 729.528L771.727 733.376L772.703 733.16L773.553 737.008L772.577 737.224L773.427 741.073L774.404 740.857L775.254 744.705L774.278 744.921L775.128 748.769L776.104 748.553L776.955 752.402L775.978 752.618L776.829 756.466L777.805 756.25L778.655 760.098L777.679 760.314L778.529 764.163L779.506 763.947L780.356 767.795L779.38 768.011L780.23 771.859L781.206 771.643L782.057 775.492L781.08 775.707L781.931 779.556L782.907 779.34L783.757 783.188L782.781 783.404L783.631 787.252L784.608 787.037L785.458 790.885L784.482 791.101L785.332 794.949L786.308 794.733L787.159 798.582L786.182 798.797L787.033 802.646L788.009 802.43L788.859 806.278L787.883 806.494L788.733 810.342L789.71 810.127L790.56 813.975L789.584 814.191L790.434 818.039L791.41 817.823L792.261 821.672L791.284 821.887L792.135 825.736L793.111 825.52L793.395 826.807L794.433 827.014L794.237 827.995L797.592 828.665L797.788 827.684L799.466 828.019L800.072 828.14L800.235 828.737L800.738 830.583L799.773 830.846L800.78 834.538L801.745 834.274L802.751 837.966L801.786 838.229L802.793 841.921L803.758 841.658L804.765 845.349L803.8 845.612L804.806 849.304L805.771 849.041L806.778 852.733L805.813 852.996L806.82 856.688L807.785 856.424L808.791 860.116L807.826 860.379L808.833 864.071L809.798 863.808L810.805 867.499L809.84 867.762L810.846 871.454L811.811 871.191L812.114 872.3H812.86V873.3H815.88V872.3H818.9V873.3H821.92V872.3H823.43H824.165L824.384 873.001L824.944 874.79L823.99 875.089L825.11 878.667L826.064 878.369L827.184 881.947L826.23 882.246L827.35 885.824L828.304 885.525L829.424 889.104L828.47 889.403L829.59 892.981L830.544 892.682L830.761 893.376L831.628 892.968L832.054 893.873L835.862 892.078L835.436 891.173L839.244 889.378L839.671 890.283L843.479 888.488L843.053 887.583L846.861 885.788L847.287 886.693L851.096 884.898L850.669 883.993L852.044 883.345L852.17 881.579L853.167 881.65L853.502 876.95L852.505 876.879L852.84 872.179L853.837 872.25L854.172 867.55L853.175 867.479L853.342 865.129L853.395 864.394L854.112 864.226L856.084 863.765L856.311 864.739L860.255 863.816L860.027 862.843L863.97 861.92L864.198 862.894L868.141 861.971L867.913 860.998L871.856 860.075L872.084 861.049L876.027 860.126L875.799 859.153L879.742 858.23L879.97 859.204L883.913 858.281L883.685 857.308L887.629 856.385L887.856 857.359L891.8 856.436L891.572 855.463L895.515 854.54L895.743 855.514L899.686 854.591L899.458 853.618L903.401 852.695L903.629 853.669L907.572 852.746L907.344 851.773L911.287 850.85L911.515 851.824L915.458 850.901L915.23 849.928L917.202 849.466L917.625 849.367L917.986 849.609L918.986 850.279L918.43 851.11L920.43 852.45L920.986 851.619L921.986 852.289L922.12 852.379L922.219 852.506L923.394 854.016L922.605 854.63L924.955 857.65L925.744 857.036L928.094 860.056L927.305 860.67L929.655 863.69L930.444 863.076L931.428 864.341L932.921 864.813L932.619 865.767L936.197 866.9L936.499 865.947L940.078 867.08L939.776 868.033L943.354 869.167L943.656 868.213L947.234 869.347L946.932 870.3L950.511 871.433L950.813 870.48L951.806 870.795L952.423 869.63L953.306 870.098L955.32 866.295L954.436 865.827L956.449 862.024L957.333 862.492L959.346 858.688L958.463 858.22L960.476 854.417L961.36 854.885L963.373 851.082L962.489 850.614L963.28 849.121L962.781 847.873L963.71 847.502L962.37 844.147L961.441 844.518L960.771 842.841L960.746 842.778L960.73 842.712L960.395 841.37L961.365 841.127L960.695 838.442L959.725 838.685L959.39 837.342L959.277 836.891L959.549 836.514L960.796 834.789L961.606 835.374L964.099 831.923L963.288 831.337L965.781 827.886L966.592 828.471L969.085 825.02L968.274 824.434L970.767 820.983L971.578 821.569L974.071 818.117L973.26 817.532L975.753 814.08L976.563 814.666L979.056 811.214L978.246 810.629L980.738 807.177L981.549 807.763L984.042 804.311L983.231 803.726L985.724 800.274L986.535 800.86L989.028 797.409L988.217 796.823L990.71 793.372L991.521 793.957L994.013 790.506L993.203 789.92L994.449 788.195L994.592 787.997L994.81 787.887L995.48 787.549L995.93 788.443L997.27 787.768L996.82 786.874L997.49 786.537L997.97 786.295L998.436 786.562L1000.79 787.904L1000.29 788.772L1004.99 791.457L1005.49 790.589L1007.57 791.779C1007.59 791.777 1007.62 791.775 1007.65 791.773C1007.89 791.754 1008.23 791.731 1008.63 791.708L1008.68 792.706C1009.49 792.66 1010.53 792.618 1011.38 792.643L1011.41 791.643C1011.92 791.659 1012.5 791.698 1012.93 791.822C1012.94 791.822 1012.95 791.822 1012.95 791.822C1013.03 791.822 1013.16 791.817 1013.33 791.805C1013.67 791.78 1014.14 791.73 1014.72 791.657L1014.85 792.649C1015.96 792.51 1017.44 792.295 1019.11 792.036L1018.96 791.048C1020.28 790.844 1021.72 790.612 1023.2 790.369L1023.37 791.356C1024.77 791.125 1026.21 790.884 1027.62 790.646L1027.45 789.66C1028.93 789.408 1030.37 789.16 1031.69 788.932L1031.86 789.917C1033.53 789.628 1035 789.37 1036.11 789.175L1035.93 788.19C1036.59 788.074 1037.12 787.98 1037.48 787.916L1037.63 787.89L1038.06 787.243L1038.89 787.8L1040.23 785.8L1039.4 785.243L1039.77 784.687L1039.19 783.279L1040.12 782.898L1038.55 779.095L1037.63 779.476L1036.06 775.673L1036.98 775.292L1035.42 771.488L1034.49 771.869L1032.93 768.066L1033.85 767.685L1032.28 763.882L1031.36 764.263L1030.74 762.773L1029.36 762.281L1029.7 761.339L1026.1 760.058L1025.76 761L1022.16 759.719L1022.5 758.777L1018.9 757.495L1018.56 758.437L1014.96 757.156L1015.3 756.214L1011.7 754.932L1011.36 755.875L1007.76 754.593L1008.1 753.651L1004.5 752.37L1004.16 753.312L1000.56 752.03L1000.9 751.088L997.3 749.807L996.964 750.749L993.364 749.468L993.7 748.526L990.1 747.244L989.764 748.186L986.164 746.905L986.5 745.963L982.9 744.682L982.564 745.624L978.964 744.342L979.3 743.4L975.7 742.119L975.364 743.061L971.764 741.78L972.1 740.837L968.5 739.556L968.164 740.498L964.564 739.217L964.9 738.275L961.3 736.993L960.964 737.935L957.364 736.654L957.7 735.712L954.1 734.431L953.764 735.373L952.036 734.757L951.903 734.732C951.769 734.705 951.575 734.667 951.331 734.618C950.843 734.52 950.159 734.379 949.368 734.208L949.579 733.231C947.958 732.881 945.89 732.406 944.178 731.917L943.904 732.878C942.815 732.567 941.799 732.232 941.118 731.897L941.116 731.896L941.107 731.892C941.099 731.888 941.088 731.884 941.075 731.878C941.048 731.866 941.013 731.851 940.968 731.833C940.879 731.797 940.762 731.75 940.615 731.694C940.323 731.582 939.928 731.434 939.436 731.253L939.781 730.315C938.861 729.977 937.618 729.529 936.103 728.99L935.768 729.932C934.666 729.539 933.42 729.097 932.049 728.614L932.382 727.671C931.243 727.269 930.018 726.837 928.719 726.381L928.388 727.325C927.216 726.913 925.984 726.481 924.7 726.032L925.031 725.088C923.842 724.672 922.608 724.241 921.337 723.797L921.007 724.741C919.808 724.322 918.575 723.892 917.314 723.452L917.643 722.508C916.436 722.087 915.203 721.658 913.949 721.221L913.621 722.166C912.407 721.743 911.175 721.314 909.927 720.881L910.255 719.936C909.037 719.512 907.804 719.084 906.56 718.652L906.232 719.597C905.009 719.172 903.776 718.744 902.537 718.314L902.865 717.369C901.637 716.943 900.404 716.515 899.169 716.087L898.841 717.032C897.61 716.605 896.377 716.178 895.146 715.751L895.474 714.806C894.24 714.379 893.007 713.952 891.78 713.527L891.453 714.472C890.216 714.043 888.984 713.617 887.762 713.194L888.089 712.249C886.846 711.819 885.614 711.392 884.396 710.971L884.069 711.916L880.373 710.638L880.699 709.692C879.445 709.259 878.212 708.832 877.004 708.415L876.677 709.36L872.984 708.084L873.311 707.139C872.041 706.7 870.81 706.275 869.622 705.865L869.296 706.81L865.582 705.528L865.909 704.583C864.592 704.128 863.351 703.7 862.198 703.302L861.872 704.247L858.205 702.982L858.531 702.037C856.993 701.507 855.734 701.072 854.808 700.753L854.482 701.699L853.14 701.236L852.792 701.116L852.704 701.086L852.682 701.078L852.676 701.076L852.675 701.076L852.674 701.076L852.674 701.075L853 700.13L852.674 701.075L852.563 701.037L852.464 700.974L850.614 699.799L851.15 698.955L847.45 696.605L846.914 697.449L843.214 695.099L843.75 694.255ZM1012.89 791.82C1012.89 791.82 1012.89 791.82 1012.9 791.821C1012.89 791.82 1012.89 791.82 1012.89 791.82Z" stroke="white" stroke-width="2" stroke-dasharray="4 4"/>
<path d="M833 701.5V700H831.5H818.5H817V701.5V714.5V716H818.5H831.5H833V714.5V701.5Z" fill="#6565FB" stroke="white" stroke-width="3"/>
<path opacity="0.6" d="M1223.46 379.3L1231.52 388.7L1227.44 395.52L1226.1 399.52L1230.1 404.89L1224.73 412.95V416.95L1228.73 422.32L1220.73 434.4V439.77C1220.73 439.77 1228.46 452.19 1227.44 453.19C1226.42 454.19 1222.07 457.19 1222.07 457.19V461.19L1223.41 467.91L1219.41 471.91V473.26L1222.09 478.63L1195.24 494.73L1191.24 498.73L1188.55 514.84L1159.02 525.58L1156.34 543.03L1132.17 553.77L1126.8 583.3L1101.3 594.04L1099.96 615.52L1077.13 620.89L1066.4 646.39L1061.03 647.74L1043.58 650.42L1034.18 661.16L1032.84 670.56C1032.84 670.56 1004.67 665.19 1003.3 665.19H992.56L991.22 674.58C991.22 674.58 942.87 665.81 941.55 665.19L913.36 651.76C913.36 651.76 887.68 645.59 887.86 602.09L886.52 594.09L877.12 595.43L855.64 592.75L842.22 594.09C842.22 594.09 843.02 631.8 822.08 635.7C801.14 639.6 781.81 642.42 781.81 642.42L730.81 655.84L642.21 677.32L607.31 685.37L545.56 698.8L546.9 680L555 670.6V645.13H560.33C560.33 645.13 562.16 630.72 563.01 630.36C563.86 630 571.07 625 571.07 625V619.53L572.41 612.81L565.7 595.36V584.62L571.07 560.46L565.7 549.72V547.04H567.06V541.67L564.37 534.96L569.74 525.56V521.56L568.4 517.56L559 505.48V502.8L565.7 493.4V451.79L618.05 426.28L620.73 423.6V408.83L630.13 400.78L624.76 344.4L644.9 331L647.58 327L646.28 301.52L679.84 247.83L682.52 242.46V234.4L679.84 225.01V222.32L690.58 220.98L695.95 222.32L698.63 226.32H702.63L737.53 198.13L736.19 177.99L753.64 157.86H756.33L765.72 161.86H769.72L816.72 145.75L824.78 149.75H835.5L854.29 141.7L861 144.38L867.73 145.69L878.47 141.69L885.18 139L886.55 132.3L906.41 123.69L918.74 118.88L918.45 118.47L926.8 114.85L959 92L991.23 86.66L996.6 97.4L1011.28 96.09L1022.02 108.17L1043.5 104.17L1059.6 116.25L1094.51 112.25L1124.04 157.9L1144.17 161.9C1144.17 161.9 1157.92 181.07 1158.94 182.04C1159.96 183.01 1191.16 191.44 1191.16 191.44L1192.5 199.44L1199.21 202.12L1197.87 207.49L1204.58 214.21L1200.58 235.68L1189.85 233L1185.85 237V257.1L1227.46 277.24L1224.78 283.95L1231.49 289.32L1227.49 297.37L1232.86 302.74L1207.36 345.74L1228.83 369.9L1223.46 379.3Z" fill="#F6520B"/>
<path d="M928.21 367.92C933.573 367.92 937.92 363.573 937.92 358.21C937.92 352.847 933.573 348.5 928.21 348.5C922.847 348.5 918.5 352.847 918.5 358.21C918.5 363.573 922.847 367.92 928.21 367.92Z" fill="#F6520B" stroke="white" stroke-width="3"/>
<rect width="273.37" height="50.5924" transform="translate(848 705)" fill="white"/>
<path d="M859.975 718.06H868.585C870.325 718.06 871.685 718.55 872.665 719.53C873.665 720.51 874.165 721.82 874.165 723.46C874.165 724.24 874.055 724.9 873.835 725.44C873.615 725.98 873.335 726.43 872.995 726.79C872.655 727.13 872.285 727.39 871.885 727.57C871.485 727.73 871.115 727.84 870.775 727.9V728.08C871.155 728.1 871.575 728.2 872.035 728.38C872.515 728.56 872.965 728.85 873.385 729.25C873.805 729.63 874.155 730.13 874.435 730.75C874.735 731.35 874.885 732.08 874.885 732.94C874.885 733.8 874.745 734.6 874.465 735.34C874.205 736.08 873.835 736.72 873.355 737.26C872.875 737.8 872.305 738.23 871.645 738.55C870.985 738.85 870.265 739 869.485 739H859.975V718.06ZM862.495 736.78H868.705C869.785 736.78 870.635 736.51 871.255 735.97C871.875 735.41 872.185 734.6 872.185 733.54V732.52C872.185 731.46 871.875 730.66 871.255 730.12C870.635 729.56 869.785 729.28 868.705 729.28H862.495V736.78ZM862.495 727.12H868.285C869.285 727.12 870.065 726.87 870.625 726.37C871.185 725.87 871.465 725.15 871.465 724.21V723.19C871.465 722.25 871.185 721.53 870.625 721.03C870.065 720.53 869.285 720.28 868.285 720.28H862.495V727.12ZM888.875 736.48H888.755C888.595 736.84 888.395 737.2 888.155 737.56C887.935 737.9 887.655 738.21 887.315 738.49C886.975 738.75 886.565 738.96 886.085 739.12C885.605 739.28 885.045 739.36 884.405 739.36C882.805 739.36 881.535 738.85 880.595 737.83C879.655 736.79 879.185 735.33 879.185 733.45V723.52H881.585V733.03C881.585 735.81 882.765 737.2 885.125 737.2C885.605 737.2 886.065 737.14 886.505 737.02C886.965 736.9 887.365 736.72 887.705 736.48C888.065 736.24 888.345 735.94 888.545 735.58C888.765 735.2 888.875 734.75 888.875 734.23V723.52H891.275V739H888.875V736.48ZM896.385 739V723.52H898.785V726.37H898.935C899.215 725.63 899.715 724.97 900.435 724.39C901.155 723.81 902.145 723.52 903.405 723.52H904.335V725.92H902.925C901.625 725.92 900.605 726.17 899.865 726.67C899.145 727.15 898.785 727.76 898.785 728.5V739H896.385ZM913.075 739.36C912.015 739.36 911.055 739.17 910.195 738.79C909.355 738.41 908.625 737.87 908.005 737.17C907.405 736.45 906.935 735.6 906.595 734.62C906.275 733.62 906.115 732.5 906.115 731.26C906.115 730.04 906.275 728.93 906.595 727.93C906.935 726.93 907.405 726.08 908.005 725.38C908.625 724.66 909.355 724.11 910.195 723.73C911.055 723.35 912.015 723.16 913.075 723.16C914.115 723.16 915.045 723.35 915.865 723.73C916.685 724.11 917.385 724.64 917.965 725.32C918.545 725.98 918.985 726.77 919.285 727.69C919.605 728.61 919.765 729.62 919.765 730.72V731.86H908.635V732.58C908.635 733.24 908.735 733.86 908.935 734.44C909.155 735 909.455 735.49 909.835 735.91C910.235 736.33 910.715 736.66 911.275 736.9C911.855 737.14 912.505 737.26 913.225 737.26C914.205 737.26 915.055 737.03 915.775 736.57C916.515 736.11 917.085 735.45 917.485 734.59L919.195 735.82C918.695 736.88 917.915 737.74 916.855 738.4C915.795 739.04 914.535 739.36 913.075 739.36ZM913.075 725.17C912.415 725.17 911.815 725.29 911.275 725.53C910.735 725.75 910.265 726.07 909.865 726.49C909.485 726.91 909.185 727.41 908.965 727.99C908.745 728.55 908.635 729.17 908.635 729.85V730.06H917.185V729.73C917.185 728.35 916.805 727.25 916.045 726.43C915.305 725.59 914.315 725.17 913.075 725.17ZM934.969 739C934.069 739 933.419 738.76 933.019 738.28C932.639 737.8 932.399 737.2 932.299 736.48H932.149C931.809 737.44 931.249 738.16 930.469 738.64C929.689 739.12 928.759 739.36 927.679 739.36C926.039 739.36 924.759 738.94 923.839 738.1C922.939 737.26 922.489 736.12 922.489 734.68C922.489 733.22 923.019 732.1 924.079 731.32C925.159 730.54 926.829 730.15 929.089 730.15H932.149V728.62C932.149 727.52 931.849 726.68 931.249 726.1C930.649 725.52 929.729 725.23 928.489 725.23C927.549 725.23 926.759 725.44 926.119 725.86C925.499 726.28 924.979 726.84 924.559 727.54L923.119 726.19C923.539 725.35 924.209 724.64 925.129 724.06C926.049 723.46 927.209 723.16 928.609 723.16C930.489 723.16 931.949 723.62 932.989 724.54C934.029 725.46 934.549 726.74 934.549 728.38V736.9H936.319V739H934.969ZM928.069 737.32C928.669 737.32 929.219 737.25 929.719 737.11C930.219 736.97 930.649 736.77 931.009 736.51C931.369 736.25 931.649 735.95 931.849 735.61C932.049 735.27 932.149 734.9 932.149 734.5V731.95H928.969C927.589 731.95 926.579 732.15 925.939 732.55C925.319 732.95 925.009 733.53 925.009 734.29V734.92C925.009 735.68 925.279 736.27 925.819 736.69C926.379 737.11 927.129 737.32 928.069 737.32ZM949.285 736.48H949.165C949.005 736.84 948.805 737.2 948.565 737.56C948.345 737.9 948.065 738.21 947.725 738.49C947.385 738.75 946.975 738.96 946.495 739.12C946.015 739.28 945.455 739.36 944.815 739.36C943.215 739.36 941.945 738.85 941.005 737.83C940.065 736.79 939.595 735.33 939.595 733.45V723.52H941.995V733.03C941.995 735.81 943.175 737.2 945.535 737.2C946.015 737.2 946.475 737.14 946.915 737.02C947.375 736.9 947.775 736.72 948.115 736.48C948.475 736.24 948.755 735.94 948.955 735.58C949.175 735.2 949.285 734.75 949.285 734.23V723.52H951.685V739H949.285V736.48ZM973.785 736.48H973.665C972.725 738.4 971.215 739.36 969.135 739.36C968.175 739.36 967.305 739.17 966.525 738.79C965.745 738.41 965.075 737.87 964.515 737.17C963.975 736.47 963.555 735.62 963.255 734.62C962.975 733.62 962.835 732.5 962.835 731.26C962.835 730.02 962.975 728.9 963.255 727.9C963.555 726.9 963.975 726.05 964.515 725.35C965.075 724.65 965.745 724.11 966.525 723.73C967.305 723.35 968.175 723.16 969.135 723.16C970.215 723.16 971.135 723.4 971.895 723.88C972.675 724.34 973.265 725.06 973.665 726.04H973.785V716.8H976.185V739H973.785V736.48ZM969.795 737.2C970.335 737.2 970.845 737.13 971.325 736.99C971.825 736.85 972.255 736.65 972.615 736.39C972.975 736.11 973.255 735.78 973.455 735.4C973.675 735 973.785 734.55 973.785 734.05V728.29C973.785 727.87 973.675 727.48 973.455 727.12C973.255 726.74 972.975 726.42 972.615 726.16C972.255 725.9 971.825 725.7 971.325 725.56C970.845 725.4 970.335 725.32 969.795 725.32C968.435 725.32 967.365 725.75 966.585 726.61C965.805 727.45 965.415 728.56 965.415 729.94V732.58C965.415 733.96 965.805 735.08 966.585 735.94C967.365 736.78 968.435 737.2 969.795 737.2ZM987.108 739.36C986.048 739.36 985.088 739.17 984.228 738.79C983.388 738.41 982.658 737.87 982.038 737.17C981.438 736.45 980.968 735.6 980.628 734.62C980.308 733.62 980.148 732.5 980.148 731.26C980.148 730.04 980.308 728.93 980.628 727.93C980.968 726.93 981.438 726.08 982.038 725.38C982.658 724.66 983.388 724.11 984.228 723.73C985.088 723.35 986.048 723.16 987.108 723.16C988.148 723.16 989.078 723.35 989.898 723.73C990.718 724.11 991.418 724.64 991.998 725.32C992.578 725.98 993.018 726.77 993.318 727.69C993.638 728.61 993.798 729.62 993.798 730.72V731.86H982.668V732.58C982.668 733.24 982.768 733.86 982.968 734.44C983.188 735 983.488 735.49 983.868 735.91C984.268 736.33 984.748 736.66 985.308 736.9C985.888 737.14 986.538 737.26 987.258 737.26C988.238 737.26 989.088 737.03 989.808 736.57C990.548 736.11 991.118 735.45 991.518 734.59L993.228 735.82C992.728 736.88 991.948 737.74 990.888 738.4C989.828 739.04 988.568 739.36 987.108 739.36ZM987.108 725.17C986.448 725.17 985.848 725.29 985.308 725.53C984.768 725.75 984.298 726.07 983.898 726.49C983.518 726.91 983.218 727.41 982.998 727.99C982.778 728.55 982.668 729.17 982.668 729.85V730.06H991.218V729.73C991.218 728.35 990.838 727.25 990.078 726.43C989.338 725.59 988.348 725.17 987.108 725.17ZM1002.4 739.36C1000.96 739.36 999.753 739.09 998.773 738.55C997.813 737.99 996.983 737.25 996.283 736.33L997.993 734.95C998.593 735.71 999.263 736.3 1000 736.72C1000.74 737.12 1001.6 737.32 1002.58 737.32C1003.6 737.32 1004.39 737.1 1004.95 736.66C1005.53 736.22 1005.82 735.6 1005.82 734.8C1005.82 734.2 1005.62 733.69 1005.22 733.27C1004.84 732.83 1004.14 732.53 1003.12 732.37L1001.89 732.19C1001.17 732.09 1000.51 731.94 999.913 731.74C999.313 731.52 998.783 731.24 998.323 730.9C997.883 730.54 997.533 730.1 997.273 729.58C997.033 729.06 996.913 728.44 996.913 727.72C996.913 726.96 997.053 726.3 997.333 725.74C997.613 725.16 997.993 724.68 998.473 724.3C998.973 723.92 999.563 723.64 1000.24 723.46C1000.92 723.26 1001.65 723.16 1002.43 723.16C1003.69 723.16 1004.74 723.38 1005.58 723.82C1006.44 724.26 1007.19 724.87 1007.83 725.65L1006.24 727.09C1005.9 726.61 1005.4 726.18 1004.74 725.8C1004.08 725.4 1003.25 725.2 1002.25 725.2C1001.25 725.2 1000.49 725.42 999.973 725.86C999.473 726.28 999.223 726.86 999.223 727.6C999.223 728.36 999.473 728.91 999.973 729.25C1000.49 729.59 1001.23 729.84 1002.19 730L1003.39 730.18C1005.11 730.44 1006.33 730.94 1007.05 731.68C1007.77 732.4 1008.13 733.35 1008.13 734.53C1008.13 736.03 1007.62 737.21 1006.6 738.07C1005.58 738.93 1004.18 739.36 1002.4 739.36ZM1020.3 725.62H1017.78V723.52H1020.3V720.4C1020.3 719.32 1020.58 718.45 1021.14 717.79C1021.7 717.13 1022.55 716.8 1023.69 716.8H1026.03V718.9H1022.7V723.52H1026.03V725.62H1022.7V739H1020.3V725.62ZM1034.89 739.36C1033.83 739.36 1032.87 739.17 1032.01 738.79C1031.17 738.41 1030.44 737.87 1029.82 737.17C1029.22 736.45 1028.75 735.6 1028.41 734.62C1028.09 733.62 1027.93 732.5 1027.93 731.26C1027.93 730.04 1028.09 728.93 1028.41 727.93C1028.75 726.93 1029.22 726.08 1029.82 725.38C1030.44 724.66 1031.17 724.11 1032.01 723.73C1032.87 723.35 1033.83 723.16 1034.89 723.16C1035.93 723.16 1036.86 723.35 1037.68 723.73C1038.5 724.11 1039.2 724.64 1039.78 725.32C1040.36 725.98 1040.8 726.77 1041.1 727.69C1041.42 728.61 1041.58 729.62 1041.58 730.72V731.86H1030.45V732.58C1030.45 733.24 1030.55 733.86 1030.75 734.44C1030.97 735 1031.27 735.49 1031.65 735.91C1032.05 736.33 1032.53 736.66 1033.09 736.9C1033.67 737.14 1034.32 737.26 1035.04 737.26C1036.02 737.26 1036.87 737.03 1037.59 736.57C1038.33 736.11 1038.9 735.45 1039.3 734.59L1041.01 735.82C1040.51 736.88 1039.73 737.74 1038.67 738.4C1037.61 739.04 1036.35 739.36 1034.89 739.36ZM1034.89 725.17C1034.23 725.17 1033.63 725.29 1033.09 725.53C1032.55 725.75 1032.08 726.07 1031.68 726.49C1031.3 726.91 1031 727.41 1030.78 727.99C1030.56 728.55 1030.45 729.17 1030.45 729.85V730.06H1039V729.73C1039 728.35 1038.62 727.25 1037.86 726.43C1037.12 725.59 1036.13 725.17 1034.89 725.17ZM1045.54 739V723.52H1047.94V726.37H1048.09C1048.37 725.63 1048.87 724.97 1049.59 724.39C1050.31 723.81 1051.3 723.52 1052.56 723.52H1053.49V725.92H1052.08C1050.78 725.92 1049.76 726.17 1049.02 726.67C1048.3 727.15 1047.94 727.76 1047.94 728.5V739H1045.54ZM1056.55 739V723.52H1058.95V726.04H1059.07C1059.25 725.64 1059.45 725.27 1059.67 724.93C1059.91 724.57 1060.19 724.26 1060.51 724C1060.85 723.74 1061.24 723.54 1061.68 723.4C1062.12 723.24 1062.64 723.16 1063.24 723.16C1064.26 723.16 1065.2 723.41 1066.06 723.91C1066.92 724.39 1067.56 725.19 1067.98 726.31H1068.04C1068.32 725.47 1068.84 724.74 1069.6 724.12C1070.38 723.48 1071.43 723.16 1072.75 723.16C1074.33 723.16 1075.56 723.68 1076.44 724.72C1077.34 725.74 1077.79 727.19 1077.79 729.07V739H1075.39V729.49C1075.39 728.11 1075.12 727.07 1074.58 726.37C1074.04 725.67 1073.18 725.32 1072 725.32C1071.52 725.32 1071.06 725.38 1070.62 725.5C1070.2 725.62 1069.82 725.8 1069.48 726.04C1069.14 726.28 1068.87 726.59 1068.67 726.97C1068.47 727.33 1068.37 727.76 1068.37 728.26V739H1065.97V729.49C1065.97 728.11 1065.7 727.07 1065.16 726.37C1064.62 725.67 1063.78 725.32 1062.64 725.32C1062.16 725.32 1061.7 725.38 1061.26 725.5C1060.82 725.62 1060.43 725.8 1060.09 726.04C1059.75 726.28 1059.47 726.59 1059.25 726.97C1059.05 727.33 1058.95 727.76 1058.95 728.26V739H1056.55ZM1088.56 739.36C1087.5 739.36 1086.54 739.17 1085.68 738.79C1084.84 738.41 1084.11 737.87 1083.49 737.17C1082.89 736.45 1082.42 735.6 1082.08 734.62C1081.76 733.62 1081.6 732.5 1081.6 731.26C1081.6 730.04 1081.76 728.93 1082.08 727.93C1082.42 726.93 1082.89 726.08 1083.49 725.38C1084.11 724.66 1084.84 724.11 1085.68 723.73C1086.54 723.35 1087.5 723.16 1088.56 723.16C1089.6 723.16 1090.53 723.35 1091.35 723.73C1092.17 724.11 1092.87 724.64 1093.45 725.32C1094.03 725.98 1094.47 726.77 1094.77 727.69C1095.09 728.61 1095.25 729.62 1095.25 730.72V731.86H1084.12V732.58C1084.12 733.24 1084.22 733.86 1084.42 734.44C1084.64 735 1084.94 735.49 1085.32 735.91C1085.72 736.33 1086.2 736.66 1086.76 736.9C1087.34 737.14 1087.99 737.26 1088.71 737.26C1089.69 737.26 1090.54 737.03 1091.26 736.57C1092 736.11 1092.57 735.45 1092.97 734.59L1094.68 735.82C1094.18 736.88 1093.4 737.74 1092.34 738.4C1091.28 739.04 1090.02 739.36 1088.56 739.36ZM1088.56 725.17C1087.9 725.17 1087.3 725.29 1086.76 725.53C1086.22 725.75 1085.75 726.07 1085.35 726.49C1084.97 726.91 1084.67 727.41 1084.45 727.99C1084.23 728.55 1084.12 729.17 1084.12 729.85V730.06H1092.67V729.73C1092.67 728.35 1092.29 727.25 1091.53 726.43C1090.79 725.59 1089.8 725.17 1088.56 725.17ZM1103.86 739.36C1102.42 739.36 1101.21 739.09 1100.23 738.55C1099.27 737.99 1098.44 737.25 1097.74 736.33L1099.45 734.95C1100.05 735.71 1100.72 736.3 1101.46 736.72C1102.2 737.12 1103.06 737.32 1104.04 737.32C1105.06 737.32 1105.85 737.1 1106.41 736.66C1106.99 736.22 1107.28 735.6 1107.28 734.8C1107.28 734.2 1107.08 733.69 1106.68 733.27C1106.3 732.83 1105.6 732.53 1104.58 732.37L1103.35 732.19C1102.63 732.09 1101.97 731.94 1101.37 731.74C1100.77 731.52 1100.24 731.24 1099.78 730.9C1099.34 730.54 1098.99 730.1 1098.73 729.58C1098.49 729.06 1098.37 728.44 1098.37 727.72C1098.37 726.96 1098.51 726.3 1098.79 725.74C1099.07 725.16 1099.45 724.68 1099.93 724.3C1100.43 723.92 1101.02 723.64 1101.7 723.46C1102.38 723.26 1103.11 723.16 1103.89 723.16C1105.15 723.16 1106.2 723.38 1107.04 723.82C1107.9 724.26 1108.65 724.87 1109.29 725.65L1107.7 727.09C1107.36 726.61 1106.86 726.18 1106.2 725.8C1105.54 725.4 1104.71 725.2 1103.71 725.2C1102.71 725.2 1101.95 725.42 1101.43 725.86C1100.93 726.28 1100.68 726.86 1100.68 727.6C1100.68 728.36 1100.93 728.91 1101.43 729.25C1101.95 729.59 1102.69 729.84 1103.65 730L1104.85 730.18C1106.57 730.44 1107.79 730.94 1108.51 731.68C1109.23 732.4 1109.59 733.35 1109.59 734.53C1109.59 736.03 1109.08 737.21 1108.06 738.07C1107.04 738.93 1105.64 739.36 1103.86 739.36Z" fill="#6565FB"/>
</svg>
