<svg width="920" height="836" viewBox="0 0 920 836" fill="none" xmlns="http://www.w3.org/2000/svg">
<path d="M302.996 560.891L298.302 565.578L295.338 562.613L300.023 557.917L295.338 553.23L298.302 550.256L302.996 554.952L307.69 550.256L310.654 553.23L305.968 557.917L310.654 562.613L307.69 565.578L302.996 560.891Z" fill="#0D0A47" stroke="white"/>
<path d="M147.658 553.634L142.964 558.322L140 555.356L144.685 550.661L140 545.974L142.964 543L147.658 547.696L152.352 543L155.316 545.974L150.631 550.661L155.316 555.356L152.352 558.322L147.658 553.634Z" fill="#0D0A47" stroke="white"/>
<path d="M442.658 614.634L437.964 619.322L435 616.356L439.685 611.661L435 606.974L437.964 604L442.658 608.696L447.352 604L450.316 606.974L445.631 611.661L450.316 616.356L447.352 619.322L442.658 614.634Z" fill="#0D0A47" stroke="white"/>
<path d="M533.658 657.634L528.964 662.322L526 659.356L530.685 654.661L526 649.974L528.964 647L533.658 651.696L538.352 647L541.316 649.974L536.631 654.661L541.316 659.356L538.352 662.322L533.658 657.634Z" fill="#0D0A47" stroke="white"/>
<path d="M564.658 637.634L559.964 642.322L557 639.356L561.685 634.661L557 629.974L559.964 627L564.658 631.696L569.352 627L572.316 629.974L567.631 634.661L572.316 639.356L569.352 642.322L564.658 637.634Z" fill="#0D0A47" stroke="white"/>
<path d="M537.137 292.28C541.079 292.28 544.275 289.083 544.275 285.14C544.275 281.197 541.079 278 537.137 278C533.196 278 530 281.197 530 285.14C530 289.083 533.196 292.28 537.137 292.28Z" fill="#FF493B" stroke="white"/>
<path d="M598.137 166.28C602.079 166.28 605.275 163.083 605.275 159.14C605.275 155.197 602.079 152 598.137 152C594.196 152 591 155.197 591 159.14C591 163.083 594.196 166.28 598.137 166.28Z" fill="#FF493B" stroke="white"/>
<path d="M344.956 568.308C348.898 568.308 352.093 565.112 352.093 561.168C352.093 557.225 348.898 554.028 344.956 554.028C341.014 554.028 337.818 557.225 337.818 561.168C337.818 565.112 341.014 568.308 344.956 568.308Z" fill="#0D0A47" stroke="white"/>
<path d="M578.137 220.28C582.079 220.28 585.275 217.083 585.275 213.14C585.275 209.197 582.079 206 578.137 206C574.196 206 571 209.197 571 213.14C571 217.083 574.196 220.28 578.137 220.28Z" fill="#0D0A47" stroke="white"/>
<rect width="109" height="23" transform="translate(591 220)" fill="#0D0A47"/>
<text fill="white" xml:space="preserve" style="white-space: pre" font-family="Karla" font-size="20" font-weight="bold" letter-spacing="0em"><tspan x="601" y="238.15">Amiraut&#xe9;</tspan></text>
<rect width="180" height="23" transform="translate(191 574)" fill="#0D0A47"/>
<text fill="white" xml:space="preserve" style="white-space: pre" font-family="Karla" font-size="20" font-weight="bold" letter-spacing="0em"><tspan x="201" y="592.15">H&#xf4;tel des fermes</tspan></text>
</svg>
