<svg width="1335" height="938" viewBox="0 0 1335 938" fill="none" xmlns="http://www.w3.org/2000/svg">
<g clip-path="url(#clip0_2_2236)">
<g style="mix-blend-mode:multiply" opacity="0.58">
<path fill-rule="evenodd" clip-rule="evenodd" d="M1335 0H0V938H1335V0ZM1223.46 379.3L1231.52 388.7L1227.44 395.52L1226.1 399.52L1230.1 404.89L1224.73 412.95V416.95L1228.73 422.32L1220.73 434.4V439.77C1220.73 439.77 1228.46 452.19 1227.44 453.19C1226.42 454.19 1222.07 457.19 1222.07 457.19V461.19L1223.41 467.91L1219.41 471.91V473.26L1222.09 478.63L1195.24 494.73L1191.24 498.73L1188.55 514.84L1159.02 525.58L1156.34 543.03L1132.17 553.77L1126.8 583.3L1101.3 594.04L1099.96 615.52L1077.13 620.89L1066.4 646.39L1061.03 647.74L1043.58 650.42L1034.18 661.16L1032.84 670.56C1032.84 670.56 1004.67 665.19 1003.3 665.19H992.56L991.22 674.58C991.22 674.58 942.87 665.81 941.55 665.19L913.36 651.76C913.36 651.76 887.68 645.59 887.86 602.09L886.52 594.09L877.12 595.43L855.64 592.75L842.22 594.09C842.22 594.09 843.02 631.8 822.08 635.7C801.14 639.6 781.81 642.42 781.81 642.42L730.81 655.84L642.21 677.32L607.31 685.37L545.56 698.8L546.9 680L555 670.6V645.13H560.33C560.33 645.13 562.16 630.72 563.01 630.36C563.86 630 571.07 625 571.07 625V619.53L572.41 612.81L565.7 595.36V584.62L571.07 560.46L565.7 549.72V547.04H567.06V541.67L564.37 534.96L569.74 525.56V521.56L568.4 517.56L559 505.48V502.8L565.7 493.4V451.79L618.05 426.28L620.73 423.6V408.83L630.13 400.78L624.76 344.4L644.9 331L647.58 327L646.28 301.52L679.84 247.83L682.52 242.46V234.4L679.84 225.01V222.32L690.58 220.98L695.95 222.32L698.63 226.32H702.63L737.53 198.13L736.19 177.99L753.64 157.86H756.33L765.72 161.86H769.72L816.72 145.75L824.78 149.75H835.5L854.29 141.7L861 144.38L867.73 145.69L878.47 141.69L885.18 139L886.55 132.3L906.41 123.69L918.74 118.88L918.45 118.47L926.8 114.85L959 92L991.23 86.66L996.6 97.4L1011.28 96.09L1022.02 108.17L1043.5 104.17L1059.6 116.25L1094.51 112.25L1124.04 157.9L1144.17 161.9C1144.17 161.9 1157.92 181.07 1158.94 182.04C1159.96 183.01 1191.16 191.44 1191.16 191.44L1192.5 199.44L1199.21 202.12L1197.87 207.49L1204.58 214.21L1200.58 235.68L1189.85 233L1185.85 237V257.1L1227.46 277.24L1224.78 283.95L1231.49 289.32L1227.49 297.37L1232.86 302.74L1207.36 345.74L1228.83 369.9L1223.46 379.3Z" fill="#6565FB"/>
</g>
<path opacity="0.6" d="M843.75 694.255L840.05 691.905L839.514 692.749L838.05 691.82L836.512 692.284L836.223 691.327L832.271 692.52L832.56 693.477L828.607 694.671L828.318 693.713L824.365 694.907L824.654 695.864L820.701 697.057L820.412 696.1L816.46 697.293L816.749 698.251L812.796 699.444L812.507 698.487L808.554 699.68L808.843 700.637L804.89 701.831L804.601 700.873L800.648 702.067L800.937 703.024L796.985 704.217L796.696 703.26L792.743 704.453L793.032 705.411L789.079 706.604L788.79 705.647L784.837 706.84L785.126 707.797L781.174 708.991L780.885 708.033L776.932 709.227L777.221 710.184L773.268 711.377L772.979 710.42L769.026 711.613L769.315 712.571L768.226 712.899L768.451 713.918L767.475 714.134L768.325 717.983L769.302 717.767L770.152 721.615L769.176 721.831L770.026 725.679L771.002 725.463L771.853 729.312L770.876 729.528L771.727 733.376L772.703 733.16L773.553 737.008L772.577 737.224L773.427 741.073L774.404 740.857L775.254 744.705L774.278 744.921L775.128 748.769L776.104 748.553L776.955 752.402L775.978 752.618L776.829 756.466L777.805 756.25L778.655 760.098L777.679 760.314L778.529 764.163L779.506 763.947L780.356 767.795L779.38 768.011L780.23 771.859L781.206 771.643L782.057 775.492L781.08 775.707L781.931 779.556L782.907 779.34L783.757 783.188L782.781 783.404L783.631 787.252L784.608 787.037L785.458 790.885L784.482 791.101L785.332 794.949L786.308 794.733L787.159 798.582L786.182 798.797L787.033 802.646L788.009 802.43L788.859 806.278L787.883 806.494L788.733 810.342L789.71 810.127L790.56 813.975L789.584 814.191L790.434 818.039L791.41 817.823L792.261 821.672L791.284 821.887L792.135 825.736L793.111 825.52L793.395 826.807L794.433 827.014L794.237 827.995L797.592 828.665L797.788 827.684L799.466 828.019L800.072 828.14L800.235 828.737L800.738 830.583L799.773 830.846L800.78 834.538L801.745 834.274L802.751 837.966L801.786 838.229L802.793 841.921L803.758 841.658L804.765 845.349L803.8 845.612L804.806 849.304L805.771 849.041L806.778 852.733L805.813 852.996L806.82 856.688L807.785 856.424L808.791 860.116L807.826 860.379L808.833 864.071L809.798 863.808L810.805 867.499L809.84 867.762L810.846 871.454L811.811 871.191L812.114 872.3H812.86V873.3H815.88V872.3H818.9V873.3H821.92V872.3H823.43H824.165L824.384 873.001L824.944 874.79L823.99 875.089L825.11 878.667L826.064 878.369L827.184 881.947L826.23 882.246L827.35 885.824L828.304 885.525L829.424 889.104L828.47 889.403L829.59 892.981L830.544 892.682L830.761 893.376L831.628 892.968L832.054 893.873L835.862 892.078L835.436 891.173L839.244 889.378L839.671 890.283L843.479 888.488L843.053 887.583L846.861 885.788L847.287 886.693L851.096 884.898L850.669 883.993L852.044 883.345L852.17 881.579L853.167 881.65L853.502 876.95L852.505 876.879L852.84 872.179L853.837 872.25L854.172 867.55L853.175 867.479L853.342 865.129L853.395 864.394L854.112 864.226L856.084 863.765L856.311 864.739L860.255 863.816L860.027 862.843L863.97 861.92L864.198 862.894L868.141 861.971L867.913 860.998L871.856 860.075L872.084 861.049L876.027 860.126L875.799 859.153L879.742 858.23L879.97 859.204L883.913 858.281L883.685 857.308L887.629 856.385L887.856 857.359L891.8 856.436L891.572 855.463L895.515 854.54L895.743 855.514L899.686 854.591L899.458 853.618L903.401 852.695L903.629 853.669L907.572 852.746L907.344 851.773L911.287 850.85L911.515 851.824L915.458 850.901L915.23 849.928L917.202 849.466L917.625 849.367L917.986 849.609L918.986 850.279L918.43 851.11L920.43 852.45L920.986 851.619L921.986 852.289L922.12 852.379L922.219 852.506L923.394 854.016L922.605 854.63L924.955 857.65L925.744 857.036L928.094 860.056L927.305 860.67L929.655 863.69L930.444 863.076L931.428 864.341L932.921 864.813L932.619 865.767L936.197 866.9L936.499 865.947L940.078 867.08L939.776 868.033L943.354 869.167L943.656 868.213L947.234 869.347L946.932 870.3L950.511 871.433L950.813 870.48L951.806 870.795L952.423 869.63L953.306 870.098L955.32 866.295L954.436 865.827L956.449 862.024L957.333 862.492L959.346 858.688L958.463 858.22L960.476 854.417L961.36 854.885L963.373 851.082L962.489 850.614L963.28 849.121L962.781 847.873L963.71 847.502L962.37 844.147L961.441 844.518L960.771 842.841L960.746 842.778L960.73 842.712L960.395 841.37L961.365 841.127L960.695 838.442L959.725 838.685L959.39 837.342L959.277 836.891L959.549 836.514L960.796 834.789L961.606 835.374L964.099 831.923L963.288 831.337L965.781 827.886L966.592 828.471L969.085 825.02L968.274 824.434L970.767 820.983L971.578 821.569L974.071 818.117L973.26 817.532L975.753 814.08L976.563 814.666L979.056 811.214L978.246 810.629L980.738 807.177L981.549 807.763L984.042 804.311L983.231 803.726L985.724 800.274L986.535 800.86L989.028 797.409L988.217 796.823L990.71 793.372L991.521 793.957L994.013 790.506L993.203 789.92L994.449 788.195L994.592 787.997L994.81 787.887L995.48 787.549L995.93 788.443L997.27 787.768L996.82 786.874L997.49 786.537L997.97 786.295L998.436 786.562L1000.79 787.904L1000.29 788.772L1004.99 791.457L1005.49 790.589L1007.57 791.779C1007.59 791.777 1007.62 791.775 1007.65 791.773C1007.89 791.754 1008.23 791.731 1008.63 791.708L1008.68 792.706C1009.49 792.66 1010.53 792.618 1011.38 792.643L1011.41 791.643C1011.92 791.659 1012.5 791.698 1012.93 791.822C1012.94 791.822 1012.95 791.822 1012.95 791.822C1013.03 791.822 1013.16 791.817 1013.33 791.805C1013.67 791.78 1014.14 791.73 1014.72 791.657L1014.85 792.649C1015.96 792.51 1017.44 792.295 1019.11 792.036L1018.96 791.048C1020.28 790.844 1021.72 790.612 1023.2 790.369L1023.37 791.356C1024.77 791.125 1026.21 790.884 1027.62 790.646L1027.45 789.66C1028.93 789.408 1030.37 789.16 1031.69 788.932L1031.86 789.917C1033.53 789.628 1035 789.37 1036.11 789.175L1035.93 788.19C1036.59 788.074 1037.12 787.98 1037.48 787.916L1037.63 787.89L1038.06 787.243L1038.89 787.8L1040.23 785.8L1039.4 785.243L1039.77 784.687L1039.19 783.279L1040.12 782.898L1038.55 779.095L1037.63 779.476L1036.06 775.673L1036.98 775.292L1035.42 771.488L1034.49 771.869L1032.93 768.066L1033.85 767.685L1032.28 763.882L1031.36 764.263L1030.74 762.773L1029.36 762.281L1029.7 761.339L1026.1 760.058L1025.76 761L1022.16 759.719L1022.5 758.777L1018.9 757.495L1018.56 758.437L1014.96 757.156L1015.3 756.214L1011.7 754.932L1011.36 755.875L1007.76 754.593L1008.1 753.651L1004.5 752.37L1004.16 753.312L1000.56 752.03L1000.9 751.088L997.3 749.807L996.964 750.749L993.364 749.468L993.7 748.526L990.1 747.244L989.764 748.186L986.164 746.905L986.5 745.963L982.9 744.682L982.564 745.624L978.964 744.342L979.3 743.4L975.7 742.119L975.364 743.061L971.764 741.78L972.1 740.837L968.5 739.556L968.164 740.498L964.564 739.217L964.9 738.275L961.3 736.993L960.964 737.935L957.364 736.654L957.7 735.712L954.1 734.431L953.764 735.373L952.036 734.757L951.903 734.732C951.769 734.705 951.575 734.667 951.331 734.618C950.843 734.52 950.159 734.379 949.368 734.208L949.579 733.231C947.958 732.881 945.89 732.406 944.178 731.917L943.904 732.878C942.815 732.567 941.799 732.232 941.118 731.897L941.116 731.896L941.107 731.892C941.099 731.888 941.088 731.884 941.075 731.878C941.048 731.866 941.013 731.851 940.968 731.833C940.879 731.797 940.762 731.75 940.615 731.694C940.323 731.582 939.928 731.434 939.436 731.253L939.781 730.315C938.861 729.977 937.618 729.529 936.103 728.99L935.768 729.932C934.666 729.539 933.42 729.097 932.049 728.614L932.382 727.671C931.243 727.269 930.018 726.837 928.719 726.381L928.388 727.325C927.216 726.913 925.984 726.481 924.7 726.032L925.031 725.088C923.842 724.672 922.608 724.241 921.337 723.797L921.007 724.741C919.808 724.322 918.575 723.892 917.314 723.452L917.643 722.508C916.436 722.087 915.203 721.658 913.949 721.221L913.621 722.166C912.407 721.743 911.175 721.314 909.927 720.881L910.255 719.936C909.037 719.512 907.804 719.084 906.56 718.652L906.232 719.597C905.009 719.172 903.776 718.744 902.537 718.314L902.865 717.369C901.637 716.943 900.404 716.515 899.169 716.087L898.841 717.032C897.61 716.605 896.377 716.178 895.146 715.751L895.474 714.806C894.24 714.379 893.007 713.952 891.78 713.527L891.453 714.472C890.216 714.043 888.984 713.617 887.762 713.194L888.089 712.249C886.846 711.819 885.614 711.392 884.396 710.971L884.069 711.916L880.373 710.638L880.699 709.692C879.445 709.259 878.212 708.832 877.004 708.415L876.677 709.36L872.984 708.084L873.311 707.139C872.041 706.7 870.81 706.275 869.622 705.865L869.296 706.81L865.582 705.528L865.909 704.583C864.592 704.128 863.351 703.7 862.198 703.302L861.872 704.247L858.205 702.982L858.531 702.037C856.993 701.507 855.734 701.072 854.808 700.753L854.482 701.699L853.14 701.236L852.792 701.116L852.704 701.086L852.682 701.078L852.676 701.076L852.675 701.076L852.674 701.076L852.674 701.075L853 700.13L852.674 701.075L852.563 701.037L852.464 700.974L850.614 699.799L851.15 698.955L847.45 696.605L846.914 697.449L843.214 695.099L843.75 694.255ZM1012.89 791.82C1012.89 791.82 1012.89 791.82 1012.9 791.821C1012.89 791.82 1012.89 791.82 1012.89 791.82Z" stroke="white" stroke-width="2" stroke-dasharray="4 4"/>
<path d="M833 701.5V700H831.5H818.5H817V701.5V714.5V716H818.5H831.5H833V714.5V701.5Z" fill="#6565FB" stroke="white" stroke-width="3"/>
<path opacity="0.6" d="M1223.46 379.3L1231.52 388.7L1227.44 395.52L1226.1 399.52L1230.1 404.89L1224.73 412.95V416.95L1228.73 422.32L1220.73 434.4V439.77C1220.73 439.77 1228.46 452.19 1227.44 453.19C1226.42 454.19 1222.07 457.19 1222.07 457.19V461.19L1223.41 467.91L1219.41 471.91V473.26L1222.09 478.63L1195.24 494.73L1191.24 498.73L1188.55 514.84L1159.02 525.58L1156.34 543.03L1132.17 553.77L1126.8 583.3L1101.3 594.04L1099.96 615.52L1077.13 620.89L1066.4 646.39L1061.03 647.74L1043.58 650.42L1034.18 661.16L1032.84 670.56C1032.84 670.56 1004.67 665.19 1003.3 665.19H992.56L991.22 674.58C991.22 674.58 942.87 665.81 941.55 665.19L913.36 651.76C913.36 651.76 887.68 645.59 887.86 602.09L886.52 594.09L877.12 595.43L855.64 592.75L842.22 594.09C842.22 594.09 843.02 631.8 822.08 635.7C801.14 639.6 781.81 642.42 781.81 642.42L730.81 655.84L642.21 677.32L607.31 685.37L545.56 698.8L546.9 680L555 670.6V645.13H560.33C560.33 645.13 562.16 630.72 563.01 630.36C563.86 630 571.07 625 571.07 625V619.53L572.41 612.81L565.7 595.36V584.62L571.07 560.46L565.7 549.72V547.04H567.06V541.67L564.37 534.96L569.74 525.56V521.56L568.4 517.56L559 505.48V502.8L565.7 493.4V451.79L618.05 426.28L620.73 423.6V408.83L630.13 400.78L624.76 344.4L644.9 331L647.58 327L646.28 301.52L679.84 247.83L682.52 242.46V234.4L679.84 225.01V222.32L690.58 220.98L695.95 222.32L698.63 226.32H702.63L737.53 198.13L736.19 177.99L753.64 157.86H756.33L765.72 161.86H769.72L816.72 145.75L824.78 149.75H835.5L854.29 141.7L861 144.38L867.73 145.69L878.47 141.69L885.18 139L886.55 132.3L906.41 123.69C913.163 133.699 921.262 148.163 927.678 159.624C932.103 167.526 935.728 174 937.56 176.6C941.885 182.736 941.729 189.475 941.577 195.995C941.571 196.243 941.566 196.492 941.56 196.74C941.512 198.962 941.535 203.425 941.56 208.317C941.588 213.686 941.618 219.572 941.56 223.58C941.45 231.24 937.44 241.33 930.82 247.75C930.068 248.48 929.305 249.249 928.513 250.047C922.334 256.276 914.383 264.292 895.92 269.22C893.961 269.743 891.853 270.3 889.631 270.886C868.226 276.538 836.177 285.001 823.43 293.39C809.36 302.65 781.82 328.29 781.82 328.29L823.43 357.82C813.36 329.413 823.729 317.116 829.777 309.942C829.904 309.793 830.028 309.645 830.15 309.5C834.65 304.15 860.658 295.979 882.865 289.003C890.168 286.708 897.06 284.543 902.64 282.65C925.19 275 930.49 270.87 942.91 257.18C955.33 243.49 956.22 236.26 956.33 231.68C956.44 227.1 956.84 201 956.33 188.68C955.845 176.973 952.471 171.677 950 167.799C949.871 167.595 949.744 167.396 949.62 167.2L918.74 118.88L918.45 118.47L926.8 114.85L959 92L991.23 86.66L996.6 97.4L1011.28 96.09L1022.02 108.17L1043.5 104.17L1059.6 116.25L1094.51 112.25L1124.04 157.9L1144.17 161.9C1144.17 161.9 1157.92 181.07 1158.94 182.04C1159.96 183.01 1191.16 191.44 1191.16 191.44L1192.5 199.44L1199.21 202.12L1197.87 207.49L1204.58 214.21L1200.58 235.68L1189.85 233L1185.85 237V257.1L1227.46 277.24L1224.78 283.95L1231.49 289.32L1227.49 297.37L1232.86 302.74L1207.36 345.74L1228.83 369.9L1223.46 379.3Z" fill="#F6520B"/>
<path opacity="0.6" fill-rule="evenodd" clip-rule="evenodd" d="M904 120.22C915.55 136.22 932.82 169.92 937.56 176.6C942.07 182.97 941.73 189.99 941.56 196.74C941.46 201.4 941.67 215.92 941.56 223.58C941.45 231.24 937.45 241.33 930.82 247.75C924.19 254.17 916.76 263.67 895.92 269.22C875.08 274.77 837.51 284.12 823.43 293.39C809.35 302.66 781.82 328.29 781.82 328.29L823.43 357.82C813.15 328.82 824.17 316.6 830.15 309.5C836.13 302.4 880.08 290.27 902.64 282.65C925.2 275.03 930.45 270.83 942.91 257.14C955.37 243.45 956.22 236.14 956.33 231.64C956.44 227.14 956.84 201 956.33 188.64C955.82 176.28 952.11 171.1 949.62 167.16L918.74 118.84L832.29 0H819.81C853.54 48.34 897.05 110.64 904 120.22Z" fill="url(#paint0_linear_2_2236)"/>
<path d="M928.21 367.92C933.573 367.92 937.92 363.573 937.92 358.21C937.92 352.847 933.573 348.5 928.21 348.5C922.847 348.5 918.5 352.847 918.5 358.21C918.5 363.573 922.847 367.92 928.21 367.92Z" fill="#F6520B" stroke="white" stroke-width="3"/>
<path d="M976.464 160.357L975.827 158.999L974.469 159.636L966.583 163.335L965.225 163.972L965.862 165.33L972.411 179.291L973.048 180.649L974.406 180.012L982.291 176.313L983.649 175.676L983.012 174.318L976.464 160.357Z" fill="#F6520B" stroke="white" stroke-width="3"/>
<rect width="248.37" height="50.5924" transform="translate(998 170)" fill="white"/>
<path d="M1009.98 204V183.06H1022.76V185.28H1012.5V192.3H1022.16V194.52H1012.5V201.78H1022.76V204H1009.98ZM1027.23 204V188.52H1029.63V191.04H1029.75C1030.13 190.16 1030.66 189.46 1031.34 188.94C1032.04 188.42 1032.97 188.16 1034.13 188.16C1035.73 188.16 1036.99 188.68 1037.91 189.72C1038.85 190.74 1039.32 192.19 1039.32 194.07V204H1036.92V194.49C1036.92 191.71 1035.75 190.32 1033.41 190.32C1032.93 190.32 1032.46 190.38 1032 190.5C1031.56 190.62 1031.16 190.8 1030.8 191.04C1030.44 191.28 1030.15 191.59 1029.93 191.97C1029.73 192.33 1029.63 192.76 1029.63 193.26V204H1027.23ZM1047.7 204C1046.86 204 1046.22 203.77 1045.78 203.31C1045.36 202.83 1045.15 202.21 1045.15 201.45V190.62H1042.6V188.52H1044.04C1044.56 188.52 1044.91 188.42 1045.09 188.22C1045.29 188 1045.39 187.63 1045.39 187.11V184.23H1047.55V188.52H1050.94V190.62H1047.55V201.9H1050.7V204H1047.7ZM1054.79 204V188.52H1057.19V191.37H1057.34C1057.62 190.63 1058.12 189.97 1058.84 189.39C1059.56 188.81 1060.55 188.52 1061.81 188.52H1062.74V190.92H1061.33C1060.03 190.92 1059.01 191.17 1058.27 191.67C1057.55 192.15 1057.19 192.76 1057.19 193.5V204H1054.79ZM1071.48 204.36C1070.42 204.36 1069.46 204.17 1068.6 203.79C1067.76 203.41 1067.03 202.87 1066.41 202.17C1065.81 201.45 1065.34 200.6 1065 199.62C1064.68 198.62 1064.52 197.5 1064.52 196.26C1064.52 195.04 1064.68 193.93 1065 192.93C1065.34 191.93 1065.81 191.08 1066.41 190.38C1067.03 189.66 1067.76 189.11 1068.6 188.73C1069.46 188.35 1070.42 188.16 1071.48 188.16C1072.52 188.16 1073.45 188.35 1074.27 188.73C1075.09 189.11 1075.79 189.64 1076.37 190.32C1076.95 190.98 1077.39 191.77 1077.69 192.69C1078.01 193.61 1078.17 194.62 1078.17 195.72V196.86H1067.04V197.58C1067.04 198.24 1067.14 198.86 1067.34 199.44C1067.56 200 1067.86 200.49 1068.24 200.91C1068.64 201.33 1069.12 201.66 1069.68 201.9C1070.26 202.14 1070.91 202.26 1071.63 202.26C1072.61 202.26 1073.46 202.03 1074.18 201.57C1074.92 201.11 1075.49 200.45 1075.89 199.59L1077.6 200.82C1077.1 201.88 1076.32 202.74 1075.26 203.4C1074.2 204.04 1072.94 204.36 1071.48 204.36ZM1071.48 190.17C1070.82 190.17 1070.22 190.29 1069.68 190.53C1069.14 190.75 1068.67 191.07 1068.27 191.49C1067.89 191.91 1067.59 192.41 1067.37 192.99C1067.15 193.55 1067.04 194.17 1067.04 194.85V195.06H1075.59V194.73C1075.59 193.35 1075.21 192.25 1074.45 191.43C1073.71 190.59 1072.72 190.17 1071.48 190.17ZM1082.13 188.52H1084.53V191.04H1084.65C1085.05 190.06 1085.63 189.34 1086.39 188.88C1087.17 188.4 1088.1 188.16 1089.18 188.16C1090.14 188.16 1091.01 188.35 1091.79 188.73C1092.57 189.11 1093.23 189.65 1093.77 190.35C1094.33 191.05 1094.75 191.9 1095.03 192.9C1095.33 193.9 1095.48 195.02 1095.48 196.26C1095.48 197.5 1095.33 198.62 1095.03 199.62C1094.75 200.62 1094.33 201.47 1093.77 202.17C1093.23 202.87 1092.57 203.41 1091.79 203.79C1091.01 204.17 1090.14 204.36 1089.18 204.36C1087.08 204.36 1085.57 203.4 1084.65 201.48H1084.53V210H1082.13V188.52ZM1088.52 202.2C1089.88 202.2 1090.95 201.78 1091.73 200.94C1092.51 200.08 1092.9 198.96 1092.9 197.58V194.94C1092.9 193.56 1092.51 192.45 1091.73 191.61C1090.95 190.75 1089.88 190.32 1088.52 190.32C1087.98 190.32 1087.46 190.4 1086.96 190.56C1086.48 190.7 1086.06 190.9 1085.7 191.16C1085.34 191.42 1085.05 191.74 1084.83 192.12C1084.63 192.48 1084.53 192.87 1084.53 193.29V199.05C1084.53 199.55 1084.63 200 1084.83 200.4C1085.05 200.78 1085.34 201.11 1085.7 201.39C1086.06 201.65 1086.48 201.85 1086.96 201.99C1087.46 202.13 1087.98 202.2 1088.52 202.2ZM1105.38 204.36C1104.34 204.36 1103.39 204.17 1102.53 203.79C1101.67 203.41 1100.93 202.87 1100.31 202.17C1099.71 201.45 1099.24 200.6 1098.9 199.62C1098.56 198.62 1098.39 197.5 1098.39 196.26C1098.39 195.04 1098.56 193.93 1098.9 192.93C1099.24 191.93 1099.71 191.08 1100.31 190.38C1100.93 189.66 1101.67 189.11 1102.53 188.73C1103.39 188.35 1104.34 188.16 1105.38 188.16C1106.42 188.16 1107.36 188.35 1108.2 188.73C1109.06 189.11 1109.8 189.66 1110.42 190.38C1111.04 191.08 1111.52 191.93 1111.86 192.93C1112.2 193.93 1112.37 195.04 1112.37 196.26C1112.37 197.5 1112.2 198.62 1111.86 199.62C1111.52 200.6 1111.04 201.45 1110.42 202.17C1109.8 202.87 1109.06 203.41 1108.2 203.79C1107.36 204.17 1106.42 204.36 1105.38 204.36ZM1105.38 202.23C1106.68 202.23 1107.74 201.83 1108.56 201.03C1109.38 200.23 1109.79 199.01 1109.79 197.37V195.15C1109.79 193.51 1109.38 192.29 1108.56 191.49C1107.74 190.69 1106.68 190.29 1105.38 190.29C1104.08 190.29 1103.02 190.69 1102.2 191.49C1101.38 192.29 1100.97 193.51 1100.97 195.15V197.37C1100.97 199.01 1101.38 200.23 1102.2 201.03C1103.02 201.83 1104.08 202.23 1105.38 202.23ZM1119.74 204C1118.9 204 1118.26 203.77 1117.82 203.31C1117.4 202.83 1117.19 202.21 1117.19 201.45V190.62H1114.64V188.52H1116.08C1116.6 188.52 1116.95 188.42 1117.13 188.22C1117.33 188 1117.43 187.63 1117.43 187.11V184.23H1119.59V188.52H1122.98V190.62H1119.59V201.9H1122.74V204H1119.74ZM1139.68 204.36C1138.6 204.36 1137.63 204.17 1136.77 203.79C1135.91 203.41 1135.18 202.87 1134.58 202.17C1134 201.47 1133.55 200.62 1133.23 199.62C1132.93 198.62 1132.78 197.5 1132.78 196.26C1132.78 195.02 1132.93 193.9 1133.23 192.9C1133.55 191.9 1134 191.05 1134.58 190.35C1135.18 189.65 1135.91 189.11 1136.77 188.73C1137.63 188.35 1138.6 188.16 1139.68 188.16C1141.22 188.16 1142.45 188.5 1143.37 189.18C1144.31 189.84 1145.01 190.71 1145.47 191.79L1143.46 192.81C1143.18 192.01 1142.72 191.39 1142.08 190.95C1141.44 190.51 1140.64 190.29 1139.68 190.29C1138.96 190.29 1138.33 190.41 1137.79 190.65C1137.25 190.87 1136.8 191.19 1136.44 191.61C1136.08 192.01 1135.81 192.5 1135.63 193.08C1135.45 193.64 1135.36 194.26 1135.36 194.94V197.58C1135.36 198.94 1135.72 200.06 1136.44 200.94C1137.18 201.8 1138.26 202.23 1139.68 202.23C1141.62 202.23 1143.02 201.33 1143.88 199.53L1145.62 200.7C1145.12 201.82 1144.37 202.71 1143.37 203.37C1142.39 204.03 1141.16 204.36 1139.68 204.36ZM1154.69 204.36C1153.65 204.36 1152.7 204.17 1151.84 203.79C1150.98 203.41 1150.24 202.87 1149.62 202.17C1149.02 201.45 1148.55 200.6 1148.21 199.62C1147.87 198.62 1147.7 197.5 1147.7 196.26C1147.7 195.04 1147.87 193.93 1148.21 192.93C1148.55 191.93 1149.02 191.08 1149.62 190.38C1150.24 189.66 1150.98 189.11 1151.84 188.73C1152.7 188.35 1153.65 188.16 1154.69 188.16C1155.73 188.16 1156.67 188.35 1157.51 188.73C1158.37 189.11 1159.11 189.66 1159.73 190.38C1160.35 191.08 1160.83 191.93 1161.17 192.93C1161.51 193.93 1161.68 195.04 1161.68 196.26C1161.68 197.5 1161.51 198.62 1161.17 199.62C1160.83 200.6 1160.35 201.45 1159.73 202.17C1159.11 202.87 1158.37 203.41 1157.51 203.79C1156.67 204.17 1155.73 204.36 1154.69 204.36ZM1154.69 202.23C1155.99 202.23 1157.05 201.83 1157.87 201.03C1158.69 200.23 1159.1 199.01 1159.1 197.37V195.15C1159.1 193.51 1158.69 192.29 1157.87 191.49C1157.05 190.69 1155.99 190.29 1154.69 190.29C1153.39 190.29 1152.33 190.69 1151.51 191.49C1150.69 192.29 1150.28 193.51 1150.28 195.15V197.37C1150.28 199.01 1150.69 200.23 1151.51 201.03C1152.33 201.83 1153.39 202.23 1154.69 202.23ZM1168.17 204C1167.33 204 1166.69 203.77 1166.25 203.31C1165.83 202.83 1165.62 202.23 1165.62 201.51V181.8H1168.02V201.9H1170.3V204H1168.17ZM1179.65 204.36C1178.61 204.36 1177.66 204.17 1176.8 203.79C1175.94 203.41 1175.2 202.87 1174.58 202.17C1173.98 201.45 1173.51 200.6 1173.17 199.62C1172.83 198.62 1172.66 197.5 1172.66 196.26C1172.66 195.04 1172.83 193.93 1173.17 192.93C1173.51 191.93 1173.98 191.08 1174.58 190.38C1175.2 189.66 1175.94 189.11 1176.8 188.73C1177.66 188.35 1178.61 188.16 1179.65 188.16C1180.69 188.16 1181.63 188.35 1182.47 188.73C1183.33 189.11 1184.07 189.66 1184.69 190.38C1185.31 191.08 1185.79 191.93 1186.13 192.93C1186.47 193.93 1186.64 195.04 1186.64 196.26C1186.64 197.5 1186.47 198.62 1186.13 199.62C1185.79 200.6 1185.31 201.45 1184.69 202.17C1184.07 202.87 1183.33 203.41 1182.47 203.79C1181.63 204.17 1180.69 204.36 1179.65 204.36ZM1179.65 202.23C1180.95 202.23 1182.01 201.83 1182.83 201.03C1183.65 200.23 1184.06 199.01 1184.06 197.37V195.15C1184.06 193.51 1183.65 192.29 1182.83 191.49C1182.01 190.69 1180.95 190.29 1179.65 190.29C1178.35 190.29 1177.29 190.69 1176.47 191.49C1175.65 192.29 1175.24 193.51 1175.24 195.15V197.37C1175.24 199.01 1175.65 200.23 1176.47 201.03C1177.29 201.83 1178.35 202.23 1179.65 202.23ZM1190.58 204V188.52H1192.98V191.04H1193.1C1193.48 190.16 1194.01 189.46 1194.69 188.94C1195.39 188.42 1196.32 188.16 1197.48 188.16C1199.08 188.16 1200.34 188.68 1201.26 189.72C1202.2 190.74 1202.67 192.19 1202.67 194.07V204H1200.27V194.49C1200.27 191.71 1199.1 190.32 1196.76 190.32C1196.28 190.32 1195.81 190.38 1195.35 190.5C1194.91 190.62 1194.51 190.8 1194.15 191.04C1193.79 191.28 1193.5 191.59 1193.28 191.97C1193.08 192.33 1192.98 192.76 1192.98 193.26V204H1190.58ZM1208.84 184.89C1208.32 184.89 1207.94 184.77 1207.7 184.53C1207.48 184.27 1207.37 183.94 1207.37 183.54V183.15C1207.37 182.75 1207.48 182.43 1207.7 182.19C1207.94 181.93 1208.32 181.8 1208.84 181.8C1209.36 181.8 1209.73 181.93 1209.95 182.19C1210.19 182.43 1210.31 182.75 1210.31 183.15V183.54C1210.31 183.94 1210.19 184.27 1209.95 184.53C1209.73 184.77 1209.36 184.89 1208.84 184.89ZM1207.64 188.52H1210.04V204H1207.64V188.52ZM1226.39 204C1225.49 204 1224.84 203.76 1224.44 203.28C1224.06 202.8 1223.82 202.2 1223.72 201.48H1223.57C1223.23 202.44 1222.67 203.16 1221.89 203.64C1221.11 204.12 1220.18 204.36 1219.1 204.36C1217.46 204.36 1216.18 203.94 1215.26 203.1C1214.36 202.26 1213.91 201.12 1213.91 199.68C1213.91 198.22 1214.44 197.1 1215.5 196.32C1216.58 195.54 1218.25 195.15 1220.51 195.15H1223.57V193.62C1223.57 192.52 1223.27 191.68 1222.67 191.1C1222.07 190.52 1221.15 190.23 1219.91 190.23C1218.97 190.23 1218.18 190.44 1217.54 190.86C1216.92 191.28 1216.4 191.84 1215.98 192.54L1214.54 191.19C1214.96 190.35 1215.63 189.64 1216.55 189.06C1217.47 188.46 1218.63 188.16 1220.03 188.16C1221.91 188.16 1223.37 188.62 1224.41 189.54C1225.45 190.46 1225.97 191.74 1225.97 193.38V201.9H1227.74V204H1226.39ZM1219.49 202.32C1220.09 202.32 1220.64 202.25 1221.14 202.11C1221.64 201.97 1222.07 201.77 1222.43 201.51C1222.79 201.25 1223.07 200.95 1223.27 200.61C1223.47 200.27 1223.57 199.9 1223.57 199.5V196.95H1220.39C1219.01 196.95 1218 197.15 1217.36 197.55C1216.74 197.95 1216.43 198.53 1216.43 199.29V199.92C1216.43 200.68 1216.7 201.27 1217.24 201.69C1217.8 202.11 1218.55 202.32 1219.49 202.32ZM1233.71 204C1232.87 204 1232.23 203.77 1231.79 203.31C1231.37 202.83 1231.16 202.23 1231.16 201.51V181.8H1233.56V201.9H1235.84V204H1233.71Z" fill="#F6520B"/>
</g>
<defs>
<linearGradient id="paint0_linear_2_2236" x1="735.71" y1="242.55" x2="761.8" y2="223.22" gradientUnits="userSpaceOnUse">
<stop stop-color="#F6520B"/>
<stop offset="1" stop-color="#3131F7"/>
</linearGradient>
<clipPath id="clip0_2_2236">
<rect width="1335" height="938" fill="white"/>
</clipPath>
</defs>
</svg>
