<svg width="1335" height="938" viewBox="0 0 1335 938" fill="none" xmlns="http://www.w3.org/2000/svg">
<g style="mix-blend-mode:multiply" opacity="0.6">
<path fill-rule="evenodd" clip-rule="evenodd" d="M430.675 624.122C375.202 221.28 966.162 13.1649 966.162 13.1649C966.162 13.1649 1324.38 -93.2779 1312.72 299.171C1287.94 1132.74 486.147 1026.96 430.675 624.122ZM1231.52 388.7L1223.46 379.3L1228.83 369.9L1207.36 345.74L1232.86 302.74L1227.49 297.37L1231.49 289.32L1224.78 283.95L1227.46 277.24L1185.85 257.1V237L1189.85 233L1200.58 235.68L1204.58 214.21L1197.87 207.49L1199.21 202.12L1192.5 199.44L1191.16 191.44C1191.16 191.44 1159.96 183.01 1158.94 182.04C1157.92 181.07 1144.17 161.9 1144.17 161.9L1124.04 157.9L1094.51 112.25L1059.6 116.25L1043.5 104.17L1022.02 108.17L1011.28 96.09L996.6 97.4L991.23 86.66L959 92L926.8 114.85L918.45 118.47L918.74 118.88L906.41 123.69L886.55 132.3L885.18 139L878.47 141.69L867.73 145.69L861 144.38L854.29 141.7L835.5 149.75H824.78L816.72 145.75L769.72 161.86H765.72L756.33 157.86H753.64L736.19 177.99L737.53 198.13L702.63 226.32H698.63L695.95 222.32L690.58 220.98L679.84 222.32V225.01L682.52 234.4V242.46L679.84 247.83L646.28 301.52L647.58 327L644.9 331L624.76 344.4L630.13 400.78L620.73 408.83V423.6L618.05 426.28L565.7 451.79V493.4L559 502.8V505.48L568.4 517.56L569.74 521.56V525.56L564.37 534.96L567.06 541.67V547.04H565.7V549.72L571.07 560.46L565.7 584.62V595.36L572.41 612.81L571.07 619.53V625C571.07 625 563.86 630 563.01 630.36C562.16 630.72 560.33 645.13 560.33 645.13H555V670.6L546.9 680L545.56 698.8L607.31 685.37L642.21 677.32L730.81 655.84L781.81 642.42C781.81 642.42 801.14 639.6 822.08 635.7C843.02 631.8 842.22 594.09 842.22 594.09L855.64 592.75L877.12 595.43L886.52 594.09L887.86 602.09C887.68 645.59 913.36 651.76 913.36 651.76L941.55 665.19C942.87 665.81 991.22 674.58 991.22 674.58L992.56 665.19H1003.3C1004.67 665.19 1032.84 670.56 1032.84 670.56L1034.18 661.16L1043.58 650.42L1061.03 647.74L1066.4 646.39L1077.13 620.89L1099.96 615.52L1101.3 594.04L1126.8 583.3L1132.17 553.77L1156.34 543.03L1159.02 525.58L1188.55 514.84L1191.24 498.73L1195.24 494.73L1222.09 478.63L1219.41 473.26V471.91L1223.41 467.91L1222.07 461.19V457.19C1222.07 457.19 1226.42 454.19 1227.44 453.19C1228.46 452.19 1220.73 439.77 1220.73 439.77V434.4L1228.73 422.32L1224.73 416.95V412.95L1230.1 404.89L1226.1 399.52L1227.44 395.52L1231.52 388.7ZM767.05 712.21L838.2 690.73L853 700.13C853 700.13 939.12 729.8 941.56 731C944 732.2 952.3 733.79 952.3 733.79L1031.5 761.98L1040.9 784.8L1038.22 788.8C1038.22 788.8 1013.81 793.17 1012.71 792.8C1011.61 792.43 1007.34 792.8 1007.34 792.8L997.94 787.43L995.26 788.78L960.36 837.1L961.7 842.47L964.38 849.18L952.3 872L930.83 865.2L921.43 853.12L917.43 850.44L854.34 865.2L853 884L830.15 894.77L823.43 873.3H811.35L799.27 829L792.56 827.66L767.05 712.21Z" fill="#6565FB"/>
</g>
<g opacity="0.6">
<path d="M1223.46 379.3L1231.52 388.7L1227.44 395.52L1226.1 399.52L1230.1 404.89L1224.73 412.95V416.95L1228.73 422.32L1220.73 434.4V439.77C1220.73 439.77 1228.46 452.19 1227.44 453.19C1226.42 454.19 1222.07 457.19 1222.07 457.19V461.19L1223.41 467.91L1219.41 471.91V473.26L1222.09 478.63L1195.24 494.73L1191.24 498.73L1188.55 514.84L1159.02 525.58L1156.34 543.03L1132.17 553.77L1126.8 583.3L1101.3 594.04L1099.96 615.52L1077.13 620.89L1066.4 646.39L1061.03 647.74L1043.58 650.42L1034.18 661.16L1032.84 670.56C1032.84 670.56 1004.67 665.19 1003.3 665.19H992.56L991.22 674.58C991.22 674.58 942.87 665.81 941.55 665.19L913.36 651.76C913.36 651.76 887.68 645.59 887.86 602.09L886.52 594.09L877.12 595.43L855.64 592.75L842.22 594.09C842.22 594.09 843.02 631.8 822.08 635.7C801.14 639.6 781.81 642.42 781.81 642.42L730.81 655.84L642.21 677.32L607.31 685.37L545.56 698.8L546.9 680L555 670.6V645.13H560.33C560.33 645.13 562.16 630.72 563.01 630.36C563.86 630 571.07 625 571.07 625V619.53L572.41 612.81L565.7 595.36V584.62L571.07 560.46L565.7 549.72V547.04H567.06V541.67L564.37 534.96L569.74 525.56V521.56L568.4 517.56L559 505.48V502.8L565.7 493.4V451.79L618.05 426.28L620.73 423.6V408.83L630.13 400.78L624.76 344.4L644.9 331L647.58 327L646.28 301.52L679.84 247.83L682.52 242.46V234.4L679.84 225.01V222.32L690.58 220.98L695.95 222.32L698.63 226.32H702.63L737.53 198.13L736.19 177.99L753.64 157.86H756.33L765.72 161.86H769.72L816.72 145.75L824.78 149.75H835.5L854.29 141.7L861 144.38L867.73 145.69L878.47 141.69L885.18 139L886.55 132.3L906.41 123.69L918.74 118.88L918.45 118.47L926.8 114.85L959 92L991.23 86.66L996.6 97.4L1011.28 96.09L1022.02 108.17L1043.5 104.17L1059.6 116.25L1094.51 112.25L1124.04 157.9L1144.17 161.9C1144.17 161.9 1157.92 181.07 1158.94 182.04C1159.96 183.01 1191.16 191.44 1191.16 191.44L1192.5 199.44L1199.21 202.12L1197.87 207.49L1204.58 214.21L1200.58 235.68L1189.85 233L1185.85 237V257.1L1227.46 277.24L1224.78 283.95L1231.49 289.32L1227.49 297.37L1232.86 302.74L1207.36 345.74L1228.83 369.9L1223.46 379.3Z" fill="#F6520B"/>
<path fill-rule="evenodd" clip-rule="evenodd" d="M838.2 690.73L767.05 712.21L792.56 827.66L799.27 829L811.35 873.3H823.43L830.15 894.77L853 884L854.34 865.2L917.43 850.44L921.43 853.12L930.83 865.2L952.3 872L964.38 849.18L961.7 842.47L960.36 837.1L995.26 788.78L997.94 787.43L1007.34 792.8C1007.34 792.8 1011.61 792.43 1012.71 792.8C1013.81 793.17 1038.22 788.8 1038.22 788.8L1040.9 784.8L1031.5 761.98L952.3 733.79C952.3 733.79 944 732.2 941.56 731C939.12 729.8 853 700.13 853 700.13L838.2 690.73Z" fill="#F6520B"/>
</g>
</svg>
